<svg width="110" height="38" viewBox="0 0 110 38" fill="none" xmlns="http://www.w3.org/2000/svg">
<g clip-path="url(#clip0_337_2738)">
<path d="M43.57 25.1296H47.3879V19.3028H43.8419V16.5846H50.2518V25.1296H53.5235V27.8478H43.57V25.1296ZM50.9561 13.2437C50.9583 13.5366 50.9003 13.8268 50.7856 14.0962C50.678 14.3524 50.52 14.5843 50.321 14.7783C50.119 14.9707 49.8838 15.1247 49.6266 15.2329C49.3626 15.3455 49.0785 15.4035 48.7914 15.4035C48.5044 15.4035 48.2203 15.3455 47.9562 15.2329C47.7038 15.1228 47.4729 14.9688 47.2742 14.7783C47.0744 14.585 46.9163 14.3529 46.8096 14.0962C46.6975 13.826 46.6397 13.5363 46.6397 13.2437C46.6397 12.9511 46.6975 12.6614 46.8096 12.3912C46.917 12.1349 47.075 11.9029 47.2742 11.7092C47.473 11.5193 47.7039 11.3662 47.9562 11.257C48.2199 11.1429 48.5041 11.084 48.7914 11.084C49.0787 11.084 49.363 11.1429 49.6266 11.257C49.8836 11.3643 50.1189 11.5175 50.321 11.7092C50.5186 11.9014 50.6765 12.1306 50.7856 12.3838C50.901 12.6556 50.9591 12.9484 50.9561 13.2437Z" fill="white"/>
<path d="M57.3661 11.9487H67.411V14.8127H60.3659V18.4501H67.1392V21.3116H60.3659V24.9861H67.6828V27.8501H57.3661V11.9487Z" fill="white"/>
<path d="M78.6593 16.5845H81.8198L79.1017 21.88V22.2877L81.9879 27.8575H78.6841L76.5688 23.4491H76.1611L74.0483 27.8575H70.7519L73.6381 22.2877V21.88L70.8878 16.5845H74.0705L76.1611 20.7211H76.5688L78.6593 16.5845Z" fill="white"/>
<path d="M87.6145 23.1526C87.6292 23.4741 87.7135 23.7886 87.8616 24.0743C88.0071 24.3548 88.2091 24.6021 88.4547 24.8008C88.7115 25.0098 89.0036 25.1713 89.3171 25.2777C89.6501 25.3927 90.0002 25.4503 90.3525 25.4482C90.9222 25.4831 91.49 25.3536 91.9883 25.0751C92.3381 24.8557 92.6209 24.5446 92.8062 24.1756L95.26 25.5397C95.1036 25.8583 94.913 26.1591 94.6917 26.4367C94.4255 26.7703 94.1066 27.0583 93.7477 27.2892C93.3118 27.5693 92.8373 27.784 92.3392 27.9267C91.7071 28.1023 91.0529 28.1856 90.3969 28.1738C89.6055 28.1834 88.8192 28.0442 88.0791 27.7636C87.3998 27.5028 86.784 27.1001 86.2727 26.5825C85.7502 26.0445 85.3477 25.4019 85.0915 24.697C84.7984 23.8887 84.6553 23.0338 84.669 22.1741V22.0357C84.6587 21.2265 84.8099 20.4234 85.1138 19.6733C85.3893 18.9898 85.8032 18.3706 86.3296 17.8546C86.8504 17.3513 87.4638 16.9535 88.1359 16.6833C88.8428 16.3998 89.5983 16.2571 90.3599 16.2633C91.2211 16.2401 92.076 16.416 92.8581 16.7772C93.5169 17.0865 94.1055 17.5272 94.5879 18.0721C95.0327 18.5767 95.3729 19.1647 95.5887 19.8018C95.7944 20.3898 95.9021 21.0075 95.9074 21.6304V23.1526H87.6145ZM90.3179 18.8579C89.6803 18.8295 89.0531 19.0263 88.5461 19.4139C88.1234 19.739 87.8132 20.1884 87.659 20.6988H92.9768C92.93 20.4334 92.8305 20.1801 92.684 19.9539C92.5376 19.7276 92.3472 19.5331 92.1242 19.3818C91.5949 19.0157 90.9609 18.8319 90.3179 18.8579Z" fill="white"/>
<path d="M110 23.7209C109.787 24.9781 109.139 26.1204 108.169 26.9481C107.209 27.7718 105.925 28.1837 104.319 28.1837C103.526 28.1898 102.737 28.0586 101.989 27.7957C101.295 27.5555 100.657 27.1772 100.113 26.6837C99.5714 26.1824 99.1448 25.5695 98.8629 24.8872C98.5489 24.1157 98.3943 23.2886 98.4082 22.4557V22.1839C98.3957 21.3439 98.5503 20.5098 98.8629 19.7301C99.1493 19.0271 99.5794 18.3917 100.126 17.8644C100.668 17.3476 101.309 16.9458 102.011 16.6833C102.749 16.4072 103.531 16.2682 104.319 16.2731C105.892 16.2731 107.168 16.6849 108.147 17.5086C109.127 18.3307 109.784 19.4745 110 20.7358L107.181 21.4772C107.097 20.8196 106.793 20.2098 106.318 19.7474C105.834 19.2532 105.152 19.0061 104.272 19.0061C103.874 19.0043 103.481 19.0816 103.113 19.2334C102.755 19.3827 102.43 19.6029 102.159 19.8808C101.877 20.1748 101.657 20.5227 101.512 20.9039C101.345 21.3348 101.261 21.7934 101.265 22.2556V22.3939C101.259 22.8482 101.343 23.2991 101.512 23.7209C101.655 24.0868 101.876 24.4173 102.159 24.6896C102.433 24.9474 102.758 25.1445 103.113 25.2678C103.486 25.3976 103.878 25.4628 104.272 25.4605C105.152 25.4605 105.822 25.2406 106.284 24.8008C106.77 24.3174 107.085 23.6883 107.181 23.0092L110 23.7209Z" fill="white"/>
<path d="M15.6222 7.7207C14.2762 7.85313 13.0352 8.50578 12.1633 9.53966C11.2914 10.5735 10.8576 11.9069 10.9543 13.2559C10.977 13.615 10.8999 13.9733 10.7315 14.2912C10.5632 14.6091 10.3102 14.8743 10.0005 15.0573C9.68651 15.2491 9.32554 15.35 8.95767 15.3489C8.60918 15.3411 8.26866 15.2432 7.96924 15.0647C7.14387 14.5429 6.18801 14.2645 5.21151 14.2616C5.00823 14.2654 4.8053 14.2802 4.60363 14.3061C3.33002 14.5063 2.17654 15.1734 1.36788 16.1775C0.559217 17.1816 0.153283 18.4508 0.229153 19.7378C0.305023 21.0248 0.857262 22.2375 1.7783 23.1397C2.69933 24.0418 3.92321 24.5688 5.21151 24.6179C5.37657 24.6218 5.5417 24.6144 5.70573 24.5957C6.90969 24.4803 8.03552 23.948 8.88872 23.0907C9.74191 22.2335 10.2689 21.1051 10.3785 19.9006C10.4008 19.626 10.4008 19.35 10.3785 19.0753C10.3555 18.7159 10.4327 18.3572 10.6016 18.0392C10.7704 17.7211 11.0243 17.4562 11.3348 17.2739C11.6413 17.0846 11.9952 16.9861 12.3554 16.9897C12.7054 16.9871 13.0487 17.0858 13.3438 17.2739C14.1759 17.7958 15.1391 18.0709 16.1213 18.0671C16.3238 18.0782 16.5267 18.0782 16.7292 18.0671C18.0301 17.8965 19.218 17.2395 20.054 16.2284C20.8899 15.2172 21.3119 13.9269 21.2348 12.6172C21.1578 11.3074 20.5875 10.0755 19.6387 9.16933C18.69 8.26314 17.4332 7.74995 16.1213 7.73306C15.9568 7.72214 15.7917 7.72214 15.6271 7.73306" fill="#FCD15A"/>
<path d="M26.5443 14.2765C25.1979 14.4089 23.9565 15.0619 23.0846 16.0964C22.2126 17.1308 21.7791 18.4648 21.8765 19.8142C21.894 20.1672 21.8166 20.5184 21.6523 20.8313C21.4881 21.1442 21.2429 21.4074 20.9424 21.5934L20.9202 21.6156C20.6065 21.807 20.2447 21.9047 19.8774 21.8973C19.5293 21.8889 19.1891 21.792 18.8889 21.6156C18.0816 21.0994 17.1465 20.8182 16.1883 20.8035C15.2302 20.7889 14.2869 21.0413 13.4641 21.5326C12.6414 22.0239 11.9717 22.7346 11.5302 23.5851C11.0886 24.4355 10.8926 25.3922 10.9642 26.3477C10.9869 26.7068 10.9098 27.0651 10.7414 27.383C10.5731 27.701 10.3201 27.9661 10.0103 28.1492C9.69405 28.3444 9.32937 28.4471 8.95767 28.4457C8.60918 28.4379 8.26865 28.34 7.96923 28.1615C7.14387 27.6397 6.18801 27.3613 5.21151 27.3584C5.00823 27.3622 4.8053 27.377 4.60363 27.4029C3.31994 27.59 2.1529 28.2512 1.33248 29.2561C0.512069 30.2609 0.0977851 31.5367 0.171272 32.8318C0.244759 34.127 0.800688 35.3477 1.7295 36.2533C2.65832 37.1589 3.89266 37.6838 5.18927 37.7246C5.35432 37.7281 5.51942 37.7206 5.68349 37.7023C6.88448 37.5861 8.00681 37.0528 8.85548 36.1951C9.70416 35.3373 10.2256 34.2094 10.3291 33.0073C10.3514 32.7334 10.3514 32.4583 10.3291 32.1844C10.3098 31.8283 10.3888 31.4738 10.5575 31.1595C10.7262 30.8453 10.978 30.5835 11.2854 30.4028L11.3077 30.3805C11.6233 30.19 11.9869 30.0939 12.3554 30.1038C12.705 30.1017 13.0479 30.1994 13.3438 30.3855C14.1686 30.9087 15.1248 31.1872 16.1016 31.1886C16.2968 31.1886 16.492 31.1688 16.6872 31.1688C18.0217 31.0342 19.2498 30.3805 20.1068 29.3488C20.9638 28.3171 21.381 26.9899 21.2686 25.6534C21.254 25.3833 21.295 25.1131 21.3891 24.8595C21.4832 24.6059 21.6283 24.3743 21.8154 24.1791C22.0026 23.9838 22.2278 23.829 22.4772 23.7243C22.7265 23.6196 22.9948 23.5671 23.2652 23.5702C23.6148 23.5681 23.9577 23.6659 24.2536 23.8519C25.0786 24.3748 26.0347 24.6532 27.0114 24.655C27.2146 24.6513 27.4176 24.6364 27.6192 24.6106C28.9201 24.44 30.108 23.783 30.944 22.7718C31.78 21.7606 32.2019 20.4704 32.1248 19.1606C32.0478 17.8509 31.4775 16.619 30.5288 15.7128C29.58 14.8066 28.3232 14.2934 27.0114 14.2765C26.8532 14.2542 26.6926 14.2542 26.5344 14.2765" fill="#FCD15A"/>
<path d="M8.9626 9.39367L8.74268 8.31875H8.76492C8.85315 8.28352 8.93347 8.23104 9.00116 8.16438C9.06886 8.09773 9.12258 8.01823 9.15917 7.93055C9.19576 7.84288 9.21448 7.74878 9.21425 7.65377C9.21402 7.55877 9.19484 7.46476 9.15782 7.37727L9.99057 6.82869C10.0351 6.87317 10.0795 6.89541 10.1018 6.93741L9.07133 9.41838C9.03681 9.40419 8.99992 9.39664 8.9626 9.39614V9.39367ZM8.98237 5.46465L9.81513 6.01323C9.75095 6.19046 9.75095 6.38458 9.81513 6.56181L8.98237 7.10792C8.85592 6.98381 8.6892 6.90909 8.51241 6.89731C8.33562 6.88552 8.16046 6.93745 8.01865 7.04367L7.58127 6.6483C7.65553 6.53895 7.69523 6.40982 7.69523 6.27764C7.69523 6.14546 7.65553 6.01632 7.58127 5.90698L8.01865 5.5116C8.14745 5.60397 8.30019 5.65717 8.4585 5.66481C8.55498 5.67229 8.65192 5.65846 8.74245 5.6243C8.83298 5.59013 8.91489 5.53647 8.98237 5.46712V5.46465ZM6.85725 3.67065L6.98821 3.60393L7.88768 4.52564C7.81336 4.62298 7.76601 4.73819 7.75039 4.85966C7.73478 4.98113 7.75145 5.10457 7.79873 5.21755C7.82097 5.25955 7.82097 5.28179 7.84321 5.32627L7.41324 5.71176C7.29156 5.61774 7.1431 5.5649 6.98938 5.5609C6.83565 5.5569 6.68465 5.60195 6.55825 5.68952L5.81692 4.9482C5.90449 4.82179 5.94954 4.67079 5.94554 4.51707C5.94154 4.36334 5.8887 4.21489 5.79468 4.0932L6.21229 3.61135C6.30813 3.67517 6.41811 3.71461 6.53267 3.72624C6.64723 3.73787 6.76289 3.72133 6.8696 3.67806L6.85725 3.67065ZM9.12817 5.23484C9.16481 5.14697 9.18365 5.0527 9.18357 4.9575C9.1835 4.8623 9.16453 4.76805 9.12774 4.68024C9.09096 4.59243 9.03711 4.5128 8.96932 4.44596C8.90152 4.37912 8.82112 4.32641 8.73279 4.29089H8.6982L8.91812 3.17396C8.96295 3.1775 9.00795 3.16986 9.04909 3.15172L10.0573 5.68952C10.0128 5.71176 9.9708 5.75377 9.92632 5.77601L9.12817 5.23484ZM1.80636 3.25798C1.89532 3.21597 2.15726 3.08253 2.20174 2.86508L3.19017 3.06029C3.18659 3.20828 3.21881 3.35493 3.28407 3.48779L2.38707 4.37491C2.26707 4.28978 2.12398 4.24324 1.97687 4.24147L1.80636 3.25798ZM7.16613 3.40872C7.25585 3.27255 7.30157 3.1121 7.2971 2.9491L8.26329 2.72917C8.29742 2.81514 8.34944 2.89287 8.4159 2.9572C8.48236 3.02153 8.56174 3.07099 8.64878 3.1023L8.43626 4.22911C8.33943 4.23218 8.24326 4.24628 8.14962 4.27112C8.11078 4.28883 8.07427 4.31124 8.04089 4.33784L7.16613 3.40872ZM5.47838 1.67896L6.04673 2.49936C5.92861 2.62538 5.85925 2.78937 5.8511 2.96191C5.84295 3.13445 5.89654 3.30424 6.00225 3.44084L5.58711 3.93506C5.47387 3.87164 5.34624 3.83834 5.21645 3.83834C5.08666 3.83834 4.95903 3.87164 4.84579 3.93506L4.46771 3.48779C4.57394 3.34598 4.62586 3.17082 4.61408 2.99403C4.60229 2.81724 4.52758 2.65052 4.40347 2.52407L4.94216 1.7012C5.01334 1.72468 5.08727 1.7388 5.16209 1.74321C5.26769 1.7444 5.37227 1.72247 5.4685 1.67896H5.47838ZM2.22398 2.5982V2.46724L4.57891 1.4368C4.62092 1.48128 4.6654 1.54552 4.70988 1.59L4.1613 2.42276C4.07321 2.38499 3.97843 2.36527 3.88259 2.36478C3.78674 2.36429 3.69177 2.38303 3.60329 2.4199C3.51482 2.45676 3.43464 2.511 3.3675 2.5794C3.30035 2.64781 3.24762 2.72898 3.21241 2.81813L2.22398 2.5982ZM5.68348 1.52576C5.72079 1.48738 5.75018 1.44204 5.76997 1.39232L8.20398 2.31403V2.46724L7.24026 2.71434C7.2029 2.62777 7.14882 2.54941 7.08112 2.48378C7.01342 2.41814 6.93343 2.36651 6.84574 2.33185C6.75804 2.29718 6.66437 2.28017 6.57009 2.28177C6.47581 2.28338 6.38277 2.30358 6.29631 2.34121H6.27407L5.68348 1.52576ZM5.15715 0.290217C4.9901 0.292955 4.8291 0.353184 4.70127 0.460759C4.57344 0.568333 4.48659 0.716679 4.45536 0.880805C4.43306 0.982559 4.43306 1.08793 4.45536 1.18969L2.12266 2.2053C2.09334 2.1556 2.05669 2.11062 2.01393 2.07186C1.87112 1.97721 1.69992 1.93494 1.52946 1.95226C1.35899 1.96958 1.19979 2.04541 1.07893 2.16685C0.958067 2.2883 0.883004 2.44786 0.866506 2.61841C0.850008 2.78895 0.893094 2.95994 0.988438 3.1023C1.01068 3.12454 1.03292 3.14678 1.05516 3.14678C0.470216 3.90025 0.111173 4.80429 0.0197754 5.75377V6.28011C0.0197754 7.66949 0.571707 9.00197 1.55415 9.98442C2.53659 10.9669 3.86907 11.5188 5.25846 11.5188C5.43373 11.5146 5.60863 11.5006 5.78233 11.4768C6.76034 11.3721 7.68845 10.9916 8.4585 10.3796C8.4585 10.4019 8.47827 10.4019 8.47827 10.4241C8.5946 10.5404 8.75237 10.6058 8.91689 10.6058C9.0814 10.6058 9.23918 10.5404 9.3555 10.4241C9.47183 10.3078 9.53719 10.15 9.53719 9.98549C9.53719 9.82098 9.47183 9.6632 9.3555 9.54687C9.3306 9.51996 9.30136 9.49741 9.26902 9.48015L10.2995 7.00908C10.4824 7.04671 10.6728 7.0122 10.8308 6.91277C10.9889 6.81334 11.1025 6.65668 11.1478 6.4755C11.193 6.29433 11.1666 6.10266 11.0739 5.94054C10.9812 5.77842 10.8295 5.65838 10.6503 5.6055H10.6256C10.5686 5.58931 10.5094 5.58263 10.4502 5.58574C10.4056 5.58237 10.3608 5.58912 10.3192 5.6055L9.31102 3.05782C9.41381 3.01946 9.50679 2.95877 9.58327 2.88012C9.65975 2.80147 9.71783 2.70683 9.7533 2.60302C9.78878 2.49921 9.80077 2.38882 9.78842 2.27981C9.77606 2.17081 9.73967 2.0659 9.68186 1.97266C9.62406 1.87943 9.54628 1.80018 9.45413 1.74064C9.36199 1.6811 9.25778 1.64276 9.14902 1.62837C9.04027 1.61399 8.92967 1.62392 8.82522 1.65745C8.72076 1.69099 8.62505 1.74728 8.54499 1.82229C8.44198 1.88104 8.35664 1.96638 8.29788 2.06939L5.87129 1.13038C5.88983 1.03811 5.88968 0.943054 5.87086 0.850835C5.85205 0.758617 5.81493 0.671106 5.76172 0.593474C5.70851 0.515842 5.64027 0.449664 5.56105 0.398851C5.48182 0.348037 5.39322 0.313619 5.30047 0.29763C5.25846 0.29763 5.21398 0.275391 5.1695 0.275391L5.15715 0.290217Z" fill="#FCD15A"/>
</g>
<defs>
<clipPath id="clip0_337_2738">
<rect width="110" height="37.4492" fill="white" transform="translate(0 0.275391)"/>
</clipPath>
</defs>
</svg>
